<?xml version="1.0" standalone="no"?>
<!DOCTYPE svg PUBLIC "-//W3C//DTD SVG 20010904//EN"
 "http://www.w3.org/TR/2001/REC-SVG-20010904/DTD/svg10.dtd">
<svg version="1.0" xmlns="http://www.w3.org/2000/svg"
 width="200.000000pt" height="200.000000pt" viewBox="0 0 200.000000 200.000000"
 preserveAspectRatio="xMidYMid meet">
<metadata>
Created by potrace 1.11, written by Peter Selinger 2001-2013
</metadata>
<g transform="translate(0.000000,200.000000) scale(0.100000,-0.100000)"
fill="#000000" stroke="none">
<path d="M11 1632 c-10 -7 -12 -24 -7 -68 4 -33 9 -66 11 -74 2 -8 6 -37 10
-65 3 -27 12 -88 20 -135 8 -47 17 -107 21 -135 3 -27 8 -59 10 -70 2 -11 7
-40 10 -65 3 -25 14 -97 24 -160 10 -63 24 -151 30 -195 6 -44 13 -91 15 -105
3 -14 10 -60 16 -103 14 -96 22 -101 132 -95 63 4 82 9 91 23 13 22 143 254
190 340 73 132 101 183 138 248 21 38 38 71 38 73 0 2 11 22 25 44 l25 40 394
0 393 0 1 -47 c0 -27 0 -56 1 -65 1 -15 30 -7 199 51 178 62 197 71 197 91 0
20 -18 29 -181 85 -99 34 -189 65 -200 69 -18 5 -19 1 -17 -59 l2 -65 -380 0
c-209 0 -378 3 -376 8 49 85 147 262 191 346 46 86 40 96 -54 96 -81 0 -77 3
-155 -145 -32 -60 -88 -166 -125 -235 -37 -69 -98 -183 -135 -255 -38 -71 -94
-177 -124 -235 -31 -58 -70 -131 -86 -162 -31 -60 -37 -63 -42 -20 -2 15 -8
56 -13 92 -5 36 -12 90 -16 120 -4 30 -8 64 -10 75 -1 11 -8 56 -14 100 -6 44
-17 125 -25 180 -8 55 -17 123 -20 150 -4 28 -10 77 -15 110 -13 85 -20 140
-25 176 -2 17 -7 34 -10 37 -10 11 -139 13 -154 4z"/>
</g>
</svg>
